<svg width="11" height="20" viewBox="0 0 11 20" fill="none" xmlns="http://www.w3.org/2000/svg">
<path opacity="0.25" d="M10.3276 0.00412371L7.75752 0C4.8701 0 3.00412 1.91443 3.00412 4.87753V7.12639H0.419993C0.196694 7.12639 0.0158691 7.30742 0.0158691 7.53072V10.7891C0.0158691 11.0124 0.1969 11.1932 0.419993 11.1932H3.00412V19.4151C3.00412 19.6384 3.18494 19.8192 3.40824 19.8192H6.77979C7.00309 19.8192 7.18391 19.6381 7.18391 19.4151V11.1932H10.2054C10.4287 11.1932 10.6095 11.0124 10.6095 10.7891L10.6107 7.53072C10.6107 7.42351 10.568 7.32082 10.4924 7.24495C10.4167 7.16907 10.3136 7.12639 10.2064 7.12639H7.18391V5.22C7.18391 4.30371 7.40226 3.83856 8.59587 3.83856L10.3272 3.83794C10.5503 3.83794 10.7311 3.65691 10.7311 3.43381V0.408247C10.7311 0.185361 10.5505 0.00453608 10.3276 0.00412371Z" fill="#241F3A"/>
</svg>
