<svg width="21" height="20" viewBox="0 0 21 20" fill="none" xmlns="http://www.w3.org/2000/svg">
<path opacity="0.25" fill-rule="evenodd" clip-rule="evenodd" d="M2.53316 0.0270844C1.0017 0.0270844 0 1.0316 0 2.35257C0 3.64475 0.972719 4.67975 2.47374 4.67975H2.50364C4.06476 4.67975 5.03563 3.64495 5.03563 2.35257C5.00621 1.0316 4.06476 0.0270844 2.53316 0.0270844ZM20.8795 12.2594V19.9786H16.4043V12.7764C16.4043 10.9671 15.757 9.73233 14.1372 9.73233C12.9006 9.73233 12.1648 10.5645 11.841 11.3694C11.723 11.6572 11.6926 12.0577 11.6926 12.4605V19.9786H7.21592C7.21592 19.9786 7.27621 7.78034 7.21592 6.5165H11.6921V8.42471C11.6878 8.43144 11.683 8.43843 11.6781 8.44539L11.6781 8.4454C11.6726 8.45317 11.6672 8.4609 11.6627 8.4682H11.6921V8.42471C12.2868 7.50873 13.3489 6.20024 15.7262 6.20024C18.6715 6.20019 20.8795 8.12432 20.8795 12.2594ZM4.74083 19.9786H0.265874V6.5165H4.74083V19.9786Z" fill="#241F3A"/>
</svg>
