<svg width="20" height="20" viewBox="0 0 20 20" fill="none" xmlns="http://www.w3.org/2000/svg">
<path opacity="0.25" fill-rule="evenodd" clip-rule="evenodd" d="M14.6912 12.815L18.4456 9.06173C20.518 6.98887 20.518 3.62765 18.4456 1.55474C16.3722 -0.518248 13.0115 -0.518248 10.9382 1.55474L8.0941 4.39871C9.23005 4.23225 10.3969 4.34563 11.48 4.76735L12.8147 3.43125C13.8502 2.39648 15.5337 2.39648 16.5679 3.43125C17.6036 4.46602 17.6036 6.14954 16.5679 7.18509L12.8147 10.9382C11.7804 11.9725 10.0965 11.9739 9.06165 10.9382C8.73761 10.6141 8.52707 10.2241 8.40647 9.81201C8.38767 9.82285 8.36871 9.83338 8.34975 9.84391C8.27 9.88819 8.19029 9.93244 8.12329 10L6.37881 11.7444C6.60309 12.1226 6.85847 12.4894 7.18493 12.815C9.25744 14.8883 12.619 14.8883 14.6912 12.815ZM7.18489 16.5694L8.52051 15.2333C9.60267 15.6542 10.7699 15.7686 11.9064 15.6012L9.06161 18.4457C6.98866 20.5181 3.62757 20.5181 1.55458 18.4457C-0.518193 16.3723 -0.518193 13.0121 1.55458 10.9385L5.30772 7.18518C7.38071 5.11219 10.7426 5.11219 12.8146 7.18518C13.1412 7.51107 13.3979 7.87656 13.6207 8.25631L11.8763 9.99996C11.8107 10.0657 11.7335 10.1086 11.6554 10.152C11.6349 10.1634 11.6143 10.1748 11.5939 10.1866C11.4722 9.77512 11.2614 9.38512 10.9381 9.06173C9.90335 8.02626 8.22048 8.02626 7.18489 9.06173L3.43117 12.815C2.39632 13.8502 2.39632 15.5337 3.43117 16.5694C4.46612 17.6037 6.15012 17.6037 7.18489 16.5694Z" fill="#241F3A"/>
</svg>
