<svg width="7" height="13" viewBox="0 0 7 13" fill="none" xmlns="http://www.w3.org/2000/svg">
<path d="M2.15208 6.49896L6.87764 1.77349C6.95774 1.69334 6.99783 1.60111 6.99783 1.49692C6.99783 1.39272 6.95778 1.30049 6.87764 1.22052L6.27636 0.619239C6.19617 0.539136 6.10398 0.498917 6.00004 0.498917C5.89581 0.498917 5.80362 0.539136 5.72347 0.619239L0.120112 6.22235C0.0399671 6.30249 0 6.39472 0 6.49892C0 6.60315 0.0399671 6.69534 0.120112 6.77549L5.72318 12.3786C5.80345 12.4589 5.89572 12.4989 5.99992 12.4989C6.10398 12.4989 6.19617 12.4589 6.27632 12.3786L6.87759 11.7777C6.9577 11.6976 6.99766 11.6053 6.99766 11.501C6.99766 11.3969 6.95774 11.3047 6.87759 11.2246L2.15208 6.49896Z" fill="#4E53FF"/>
</svg>
