<svg width="10" height="6" viewBox="0 0 10 6" fill="none" xmlns="http://www.w3.org/2000/svg">
<path d="M5.00004 4.12237L1.06214 0.184409C0.995353 0.117657 0.918493 0.0842457 0.831666 0.0842457C0.744839 0.0842457 0.667979 0.117622 0.601332 0.184409L0.100269 0.685472C0.0335165 0.752295 0 0.82912 0 0.915736C0 1.0026 0.0335165 1.07942 0.100269 1.14621L4.76953 5.81568C4.83631 5.88247 4.91317 5.91577 5 5.91577C5.08686 5.91577 5.16369 5.88247 5.23047 5.81568L9.89973 1.14646C9.96662 1.07956 10 1.00267 10 0.915842C10 0.82912 9.96662 0.752295 9.89973 0.685508L9.39902 0.184444C9.33223 0.117692 9.25534 0.0843859 9.16844 0.0843859C9.08168 0.0843859 9.00486 0.117657 8.93807 0.184444L5.00004 4.12237Z" fill="#C1C1CF"/>
</svg>
