<svg width="45" height="30" viewBox="0 0 45 30" fill="none" xmlns="http://www.w3.org/2000/svg">
<path d="M36.0949 10.0285C34.1662 6.66142 30.3684 4.7297 26.2946 5.36562C24.695 2.08403 21.3518 0 17.5907 0C12.268 0 7.93606 4.23567 7.93606 9.44215C7.93606 9.65665 7.94475 9.87811 7.9645 10.1078C3.37013 11.1324 0 15.1877 0 19.8583C0 25.3794 4.59292 29.8698 10.2386 29.8698H17.824H18.3309H20.2247V18.7666L18.7943 20.1653C18.0434 20.8998 16.734 20.8998 15.9836 20.1653C15.6089 19.7987 15.4006 19.3101 15.4006 18.7913C15.4006 18.2718 15.6081 17.7855 15.9846 17.4191L20.8087 12.6998C21.1772 12.3391 21.6895 12.1324 22.2126 12.1324L22.4055 12.1385C22.8716 12.1752 23.3057 12.3706 23.6426 12.6975L28.47 17.4191C28.8455 17.7856 29.0527 18.2727 29.0527 18.7922C29.0527 19.3101 28.8455 19.8004 28.469 20.1668C27.7211 20.9006 26.4093 20.9006 25.6588 20.1668L24.1991 18.7373V29.8706H34.2144C39.8603 29.8706 44.4528 25.3794 44.4528 19.8591C44.4528 15.0547 40.8891 10.9029 36.0949 10.0285Z" fill="#4E53FF"/>
</svg>
