<svg width="14" height="20" viewBox="0 0 14 20" fill="none" xmlns="http://www.w3.org/2000/svg">
<path fill-rule="evenodd" clip-rule="evenodd" d="M10.5841 2.26059H12.7258C13.3731 2.26059 13.8977 2.78519 13.8977 3.43246V4.32571C13.8977 4.54147 13.7228 4.71634 13.5071 4.71634H0.390625C0.174866 4.71634 0 4.54147 0 4.32571V3.43246C0 2.78519 0.52475 2.26059 1.17188 2.26059H3.3136V2.14844C3.3136 0.963745 4.27734 0 5.46204 0H8.43567C9.62036 0 10.5841 0.963745 10.5841 2.14844V2.26059ZM5.46204 1.17188C4.92355 1.17188 4.48547 1.60995 4.48547 2.14844V2.26059H9.41223V2.14844C9.41223 1.60995 8.97415 1.17188 8.43567 1.17188H5.46204Z" fill="#C1C1CF"/>
<path fill-rule="evenodd" clip-rule="evenodd" d="M1.45267 19.4548L0.505859 5.88821H13.3918L12.4451 19.4548C12.4237 19.7618 12.1685 20 11.8607 20H2.03723C1.72946 20 1.47418 19.7618 1.45267 19.4548ZM4.60468 18.0078C4.61307 18.0078 4.62161 18.0077 4.63 18.0072C4.95334 17.9935 5.20435 17.7203 5.19061 17.397L4.79999 8.21732C4.78625 7.89398 4.51312 7.64343 4.18964 7.65671C3.8663 7.67044 3.6153 7.94373 3.62918 8.26706L4.01981 17.4467C4.03308 17.7615 4.29263 18.0078 4.60468 18.0078ZM7.53482 17.4219C7.53482 17.7455 7.27252 18.0078 6.94888 18.0078C6.62524 18.0078 6.36295 17.7455 6.36295 17.4219V8.24219C6.36295 7.91855 6.62524 7.65625 6.94888 7.65625C7.27252 7.65625 7.53482 7.91855 7.53482 8.24219V17.4219ZM9.29309 18.0078C9.60513 18.0078 9.86469 17.7617 9.87811 17.4467L10.2687 8.26706C10.2825 7.94373 10.0315 7.67059 9.70813 7.65686C9.38525 7.64313 9.11166 7.89398 9.09778 8.21732L8.70715 17.397C8.69342 17.7203 8.94443 17.9936 9.26776 18.0074C9.27615 18.0077 9.2847 18.0078 9.29309 18.0078Z" fill="#C1C1CF"/>
</svg>
