<svg width="35" height="35" viewBox="0 0 35 35" fill="none" xmlns="http://www.w3.org/2000/svg">
<path opacity="0.5" fill-rule="evenodd" clip-rule="evenodd" d="M17.5001 35.0002C27.1651 35.0002 35.0002 27.1651 35.0002 17.5001C35.0002 7.83505 27.1651 0 17.5001 0C7.83505 0 0 7.83505 0 17.5001C0 27.1651 7.83505 35.0002 17.5001 35.0002Z" fill="white"/>
<path d="M15.2291 12.8324C15.2291 13.2151 15.2291 14.9233 15.2291 14.9233H13.6973V17.4799H15.2291V25.0775H18.3757V17.4801H20.4873C20.4873 17.4801 20.685 16.2542 20.7809 14.9138C20.5061 14.9138 18.3876 14.9138 18.3876 14.9138C18.3876 14.9138 18.3876 13.4264 18.3876 13.1657C18.3876 12.9044 18.7307 12.553 19.0698 12.553C19.4083 12.553 20.1226 12.553 20.7842 12.553C20.7842 12.2049 20.7842 11.0022 20.7842 9.89136C19.901 9.89136 18.8961 9.89136 18.4532 9.89136C15.1513 9.89118 15.2291 12.4504 15.2291 12.8324Z" fill="#1F2532"/>
</svg>
