<svg width="191" height="40" viewBox="0 0 191 40" fill="none" xmlns="http://www.w3.org/2000/svg">
<path d="M25.2201 35.9709L16.3152 21.9173V14.8457H17.4483C17.7551 14.8457 18.021 14.7332 18.2449 14.5087C18.4694 14.2844 18.5814 14.0185 18.5814 13.7113C18.5814 13.404 18.4694 13.1382 18.2449 12.9138C18.021 12.6893 17.7552 12.5771 17.4483 12.5771H8.38477C8.07773 12.5771 7.81223 12.6893 7.58803 12.9138C7.36376 13.1382 7.25172 13.4041 7.25172 13.7113C7.25172 14.0185 7.36376 14.2845 7.58803 14.5088C7.81242 14.7333 8.07798 14.8457 8.38477 14.8457H9.51764V21.9172L0.613286 35.9707C-0.0474261 37.0227 -0.174348 37.9238 0.232831 38.6737C0.640009 39.424 1.46912 39.7991 2.71999 39.7991H23.1137C24.3643 39.7991 25.1933 39.424 25.6003 38.6737C26.0077 37.9238 25.8808 37.0229 25.2201 35.9709ZM6.61457 30.725L11.4297 23.122L11.7836 22.5725V21.9169V14.8455H14.0493V21.9169V22.5725L14.4032 23.122L19.2186 30.725H6.61457Z" fill="white"/>
<path d="M9.36147 7.33418C9.36147 6.17779 8.42403 5.24036 7.26765 5.24036C6.11126 5.24036 5.17383 6.17779 5.17383 7.33418V7.33897C5.17383 8.49535 6.11126 9.43279 7.26765 9.43279C8.42403 9.43279 9.36147 8.49535 9.36147 7.33897V7.33418Z" fill="white"/>
<path d="M19.8331 7.33418C19.8331 6.17779 18.8957 5.24036 17.7393 5.24036C16.5829 5.24036 15.6455 6.17779 15.6455 7.33418V7.33897C15.6455 8.49535 16.5829 9.43279 17.7393 9.43279C18.8957 9.43279 19.8331 8.49535 19.8331 7.33897V7.33418Z" fill="white"/>
<path d="M14.5997 1.57036C14.5997 0.703076 13.8966 0 13.0293 0C12.1621 0 11.459 0.703076 11.459 1.57036V1.57396C11.459 2.44125 12.1621 3.14432 13.0293 3.14432C13.8966 3.14432 14.5997 2.44125 14.5997 1.57396V1.57036Z" fill="white"/>
<path d="M38.8421 31.8682V16.9582H45.5621C46.2621 16.9582 46.9061 17.1052 47.4941 17.3992C48.0961 17.6932 48.6141 18.0782 49.0481 18.5542C49.4821 19.0302 49.8181 19.5692 50.0561 20.1712C50.3081 20.7732 50.4341 21.3822 50.4341 21.9982C50.4341 22.4602 50.3781 22.9082 50.2661 23.3422C50.1541 23.7622 49.9931 24.1612 49.7831 24.5392C49.5731 24.9172 49.3141 25.2602 49.0061 25.5682C48.7121 25.8622 48.3761 26.1142 47.9981 26.3242L51.2741 31.8682H47.3891L44.5331 27.0592H42.2861V31.8682H38.8421ZM42.2861 24.0562H45.4361C45.8421 24.0562 46.1921 23.8672 46.4861 23.4892C46.7801 23.0972 46.9271 22.6002 46.9271 21.9982C46.9271 21.3822 46.7591 20.8922 46.4231 20.5282C46.0871 20.1642 45.7231 19.9822 45.3311 19.9822H42.2861V24.0562ZM57.6008 32.0782C56.6768 32.0782 55.8438 31.9312 55.1018 31.6372C54.3738 31.3292 53.7508 30.9162 53.2328 30.3982C52.7288 29.8802 52.3438 29.2852 52.0778 28.6132C51.8118 27.9272 51.6788 27.2132 51.6788 26.4712C51.6788 25.6732 51.8118 24.9242 52.0778 24.2242C52.3438 23.5102 52.7288 22.8872 53.2328 22.3552C53.7368 21.8232 54.3528 21.4032 55.0808 21.0952C55.8228 20.7872 56.6628 20.6332 57.6008 20.6332C58.5388 20.6332 59.3718 20.7872 60.0998 21.0952C60.8278 21.4032 61.4438 21.8232 61.9478 22.3552C62.4518 22.8732 62.8298 23.4752 63.0818 24.1612C63.3478 24.8472 63.4808 25.5682 63.4808 26.3242C63.4808 26.5202 63.4738 26.7162 63.4598 26.9122C63.4458 27.0942 63.4248 27.2552 63.3968 27.3952H55.2488C55.3048 28.1372 55.5708 28.7042 56.0468 29.0962C56.5368 29.4742 57.0898 29.6632 57.7058 29.6632C58.1958 29.6632 58.6648 29.5442 59.1128 29.3062C59.5748 29.0682 59.8828 28.7462 60.0368 28.3402L62.8928 29.1382C62.4588 30.0062 61.7868 30.7132 60.8768 31.2592C59.9668 31.8052 58.8748 32.0782 57.6008 32.0782ZM59.9318 25.3162C59.8618 24.6162 59.6098 24.0632 59.1758 23.6572C58.7418 23.2512 58.2028 23.0482 57.5588 23.0482C56.9008 23.0482 56.3548 23.2582 55.9208 23.6782C55.5008 24.0842 55.2558 24.6302 55.1858 25.3162H59.9318ZM69.3506 32.0782C68.4126 32.0782 67.4886 31.9312 66.5786 31.6372C65.6686 31.3292 64.8986 30.8882 64.2686 30.3142L65.4656 28.2562C66.1376 28.7182 66.7886 29.0752 67.4186 29.3272C68.0626 29.5792 68.6786 29.7052 69.2666 29.7052C69.7006 29.7052 70.0366 29.6282 70.2746 29.4742C70.5126 29.3202 70.6316 29.0962 70.6316 28.8022C70.6316 28.5082 70.4776 28.2772 70.1696 28.1092C69.8756 27.9272 69.3506 27.7382 68.5946 27.5422C67.8526 27.3322 67.2226 27.1292 66.7046 26.9332C66.2006 26.7372 65.7876 26.5202 65.4656 26.2822C65.1436 26.0442 64.9126 25.7712 64.7726 25.4632C64.6326 25.1552 64.5626 24.7912 64.5626 24.3712C64.5626 23.8112 64.6746 23.3002 64.8986 22.8382C65.1226 22.3762 65.4306 21.9842 65.8226 21.6622C66.2146 21.3402 66.6766 21.0882 67.2086 20.9062C67.7546 20.7242 68.3426 20.6332 68.9726 20.6332C69.7986 20.6332 70.5686 20.7452 71.2826 20.9692C72.0106 21.1932 72.7106 21.5992 73.3826 22.1872L72.0806 24.2032C71.4506 23.7692 70.8906 23.4542 70.4006 23.2582C69.9106 23.0622 69.4346 22.9642 68.9726 22.9642C68.6086 22.9642 68.3006 23.0412 68.0486 23.1952C67.7966 23.3352 67.6706 23.5662 67.6706 23.8882C67.6706 24.1962 67.8036 24.4272 68.0696 24.5812C68.3496 24.7352 68.8606 24.9032 69.6026 25.0852C70.3866 25.2952 71.0446 25.5052 71.5766 25.7152C72.1226 25.9252 72.5636 26.1632 72.8996 26.4292C73.2356 26.6812 73.4806 26.9752 73.6346 27.3112C73.7886 27.6472 73.8656 28.0462 73.8656 28.5082C73.8656 29.6002 73.4596 30.4682 72.6476 31.1122C71.8356 31.7562 70.7366 32.0782 69.3506 32.0782ZM80.7541 32.0782C79.8301 32.0782 78.9971 31.9312 78.2551 31.6372C77.5271 31.3292 76.9041 30.9162 76.3861 30.3982C75.8821 29.8802 75.4971 29.2852 75.2311 28.6132C74.9651 27.9272 74.8321 27.2132 74.8321 26.4712C74.8321 25.6732 74.9651 24.9242 75.2311 24.2242C75.4971 23.5102 75.8821 22.8872 76.3861 22.3552C76.8901 21.8232 77.5061 21.4032 78.2341 21.0952C78.9761 20.7872 79.8161 20.6332 80.7541 20.6332C81.6921 20.6332 82.5251 20.7872 83.2531 21.0952C83.9811 21.4032 84.5971 21.8232 85.1011 22.3552C85.6051 22.8732 85.9831 23.4752 86.2351 24.1612C86.5011 24.8472 86.6341 25.5682 86.6341 26.3242C86.6341 26.5202 86.6271 26.7162 86.6131 26.9122C86.5991 27.0942 86.5781 27.2552 86.5501 27.3952H78.4021C78.4581 28.1372 78.7241 28.7042 79.2001 29.0962C79.6901 29.4742 80.2431 29.6632 80.8591 29.6632C81.3491 29.6632 81.8181 29.5442 82.2661 29.3062C82.7281 29.0682 83.0361 28.7462 83.1901 28.3402L86.0461 29.1382C85.6121 30.0062 84.9401 30.7132 84.0301 31.2592C83.1201 31.8052 82.0281 32.0782 80.7541 32.0782ZM83.0851 25.3162C83.0151 24.6162 82.7631 24.0632 82.3291 23.6572C81.8951 23.2512 81.3561 23.0482 80.7121 23.0482C80.0541 23.0482 79.5081 23.2582 79.0741 23.6782C78.6541 24.0842 78.4091 24.6302 78.3391 25.3162H83.0851ZM91.286 32.0782C90.74 32.0782 90.229 31.9942 89.753 31.8262C89.291 31.6442 88.892 31.3992 88.556 31.0912C88.22 30.7692 87.954 30.3982 87.758 29.9782C87.562 29.5442 87.464 29.0752 87.464 28.5712C87.464 28.0252 87.576 27.5282 87.8 27.0802C88.038 26.6322 88.367 26.2472 88.787 25.9252C89.207 25.6032 89.704 25.3512 90.278 25.1692C90.852 24.9872 91.489 24.8962 92.189 24.8962C92.651 24.8962 93.099 24.9382 93.533 25.0222C93.967 25.0922 94.345 25.2042 94.667 25.3582V24.8542C94.667 23.5802 93.932 22.9432 92.462 22.9432C91.86 22.9432 91.286 23.0482 90.74 23.2582C90.194 23.4542 89.62 23.7552 89.018 24.1612L88.031 22.0612C88.759 21.5852 89.515 21.2282 90.299 20.9902C91.083 20.7522 91.916 20.6332 92.798 20.6332C94.464 20.6332 95.752 21.0252 96.662 21.8092C97.572 22.5932 98.027 23.7412 98.027 25.2532V28.0882C98.027 28.4242 98.076 28.6622 98.174 28.8022C98.286 28.9282 98.475 29.0052 98.741 29.0332V31.8682C98.447 31.9382 98.181 31.9802 97.943 31.9942C97.705 32.0222 97.488 32.0362 97.292 32.0362C96.662 32.0362 96.186 31.9172 95.864 31.6792C95.542 31.4272 95.339 31.0772 95.255 30.6292L95.192 30.1252C94.702 30.7552 94.114 31.2382 93.428 31.5742C92.756 31.9102 92.042 32.0782 91.286 32.0782ZM92.273 29.6632C92.637 29.6632 92.987 29.6002 93.323 29.4742C93.673 29.3482 93.96 29.1802 94.184 28.9702C94.506 28.7182 94.667 28.4522 94.667 28.1722V27.1222C94.373 27.0102 94.051 26.9262 93.701 26.8702C93.365 26.8002 93.05 26.7652 92.756 26.7652C92.14 26.7652 91.629 26.9052 91.223 27.1852C90.831 27.4652 90.635 27.8292 90.635 28.2772C90.635 28.6832 90.789 29.0192 91.097 29.2852C91.405 29.5372 91.797 29.6632 92.273 29.6632ZM107.455 23.7202C106.643 23.7342 105.908 23.8672 105.25 24.1192C104.592 24.3712 104.116 24.7492 103.822 25.2532V31.8682H100.462V20.8432H103.549V23.0692C103.927 22.3272 104.41 21.7462 104.998 21.3262C105.6 20.9062 106.237 20.6892 106.909 20.6752C107.063 20.6752 107.175 20.6752 107.245 20.6752C107.315 20.6752 107.385 20.6822 107.455 20.6962V23.7202ZM107.665 26.3452C107.665 25.5892 107.798 24.8682 108.064 24.1822C108.33 23.4822 108.715 22.8732 109.219 22.3552C109.723 21.8232 110.339 21.4032 111.067 21.0952C111.809 20.7872 112.649 20.6332 113.587 20.6332C114.861 20.6332 115.932 20.9062 116.8 21.4522C117.668 21.9842 118.319 22.6842 118.753 23.5522L115.477 24.5392C115.043 23.8392 114.406 23.4892 113.566 23.4892C112.866 23.4892 112.278 23.7482 111.802 24.2662C111.34 24.7842 111.109 25.4772 111.109 26.3452C111.109 26.7792 111.172 27.1782 111.298 27.5422C111.424 27.8922 111.599 28.1932 111.823 28.4452C112.047 28.6972 112.306 28.8932 112.6 29.0332C112.908 29.1732 113.23 29.2432 113.566 29.2432C113.986 29.2432 114.371 29.1452 114.721 28.9492C115.071 28.7392 115.33 28.4732 115.498 28.1512L118.774 29.1592C118.368 30.0132 117.717 30.7132 116.821 31.2592C115.939 31.8052 114.861 32.0782 113.587 32.0782C112.663 32.0782 111.83 31.9242 111.088 31.6162C110.36 31.2942 109.737 30.8742 109.219 30.3562C108.715 29.8242 108.33 29.2152 108.064 28.5292C107.798 27.8292 107.665 27.1012 107.665 26.3452ZM130.919 31.8682H127.559V25.6732C127.559 24.9592 127.419 24.4342 127.139 24.0982C126.859 23.7622 126.474 23.5942 125.984 23.5942C125.788 23.5942 125.571 23.6432 125.333 23.7412C125.109 23.8252 124.885 23.9582 124.661 24.1402C124.451 24.3082 124.255 24.5112 124.073 24.7492C123.891 24.9872 123.751 25.2532 123.653 25.5472V31.8682H120.293V16.5382H123.653V22.6912C124.059 22.0332 124.591 21.5292 125.249 21.1792C125.921 20.8152 126.656 20.6332 127.454 20.6332C128.196 20.6332 128.791 20.7662 129.239 21.0322C129.701 21.2842 130.051 21.6132 130.289 22.0192C130.541 22.4112 130.709 22.8592 130.793 23.3632C130.877 23.8532 130.919 24.3362 130.919 24.8122V31.8682ZM145.625 16.9582V31.8682H144.176V24.8962H135.335V31.8682H133.865V16.9582H135.335V23.5942H144.176V16.9582H145.625ZM152.498 32.0782C151.308 32.0782 150.419 31.6862 149.831 30.9022C149.257 30.1042 148.97 28.9212 148.97 27.3532V20.9272H150.398V27.1012C150.398 29.5792 151.245 30.8182 152.939 30.8182C153.359 30.8182 153.772 30.7482 154.178 30.6082C154.584 30.4682 154.955 30.2652 155.291 29.9992C155.641 29.7332 155.949 29.4182 156.215 29.0542C156.495 28.6902 156.719 28.2772 156.887 27.8152V20.9272H158.315V30.0202C158.315 30.4122 158.483 30.6082 158.819 30.6082V31.8682C158.651 31.8962 158.511 31.9102 158.399 31.9102C158.301 31.9102 158.231 31.9102 158.189 31.9102C157.853 31.8962 157.58 31.7772 157.37 31.5532C157.16 31.3292 157.055 31.0282 157.055 30.6502V29.3902C156.579 30.2442 155.928 30.9092 155.102 31.3852C154.29 31.8472 153.422 32.0782 152.498 32.0782ZM166.899 32.0782C166.031 32.0782 165.233 31.8612 164.505 31.4272C163.791 30.9932 163.231 30.4332 162.825 29.7472V31.8682H161.544V16.5382H162.972V23.2162C163.462 22.4742 164.05 21.8792 164.736 21.4312C165.422 20.9692 166.22 20.7382 167.13 20.7382C167.9 20.7382 168.586 20.8992 169.188 21.2212C169.804 21.5432 170.322 21.9772 170.742 22.5232C171.176 23.0552 171.505 23.6642 171.729 24.3502C171.967 25.0222 172.086 25.7152 172.086 26.4292C172.086 27.1992 171.953 27.9272 171.687 28.6132C171.421 29.2992 171.057 29.9012 170.595 30.4192C170.133 30.9232 169.58 31.3292 168.936 31.6372C168.306 31.9312 167.627 32.0782 166.899 32.0782ZM166.563 30.8182C167.165 30.8182 167.711 30.6992 168.201 30.4612C168.705 30.2092 169.132 29.8802 169.482 29.4742C169.846 29.0542 170.126 28.5852 170.322 28.0672C170.532 27.5352 170.637 26.9892 170.637 26.4292C170.637 25.8552 170.539 25.3022 170.343 24.7702C170.161 24.2382 169.895 23.7692 169.545 23.3632C169.209 22.9432 168.796 22.6142 168.306 22.3762C167.83 22.1242 167.305 21.9982 166.731 21.9982C166.297 21.9982 165.891 22.0752 165.513 22.2292C165.135 22.3692 164.785 22.5652 164.463 22.8172C164.141 23.0692 163.854 23.3632 163.602 23.6992C163.35 24.0212 163.14 24.3642 162.972 24.7282V28.1302C163.028 28.5082 163.175 28.8652 163.413 29.2012C163.665 29.5232 163.959 29.8032 164.295 30.0412C164.645 30.2792 165.016 30.4682 165.408 30.6082C165.814 30.7482 166.199 30.8182 166.563 30.8182Z" fill="white"/>
</svg>
