<svg width="37" height="37" viewBox="0 0 37 37" fill="none" xmlns="http://www.w3.org/2000/svg">
<path opacity="0.5" fill-rule="evenodd" clip-rule="evenodd" d="M18.5001 36.0002C28.1651 36.0002 36.0002 28.1651 36.0002 18.5001C36.0002 8.83505 28.1651 1 18.5001 1C8.83505 1 1 8.83505 1 18.5001C1 28.1651 8.83505 36.0002 18.5001 36.0002Z" fill="white" stroke="white"/>
<path fill-rule="evenodd" clip-rule="evenodd" d="M13.3902 10.1312C12.339 10.1312 11.6514 10.8208 11.6514 11.7276C11.6514 12.6146 12.3191 13.325 13.3495 13.325H13.37C14.4416 13.325 15.1081 12.6147 15.1081 11.7276C15.0879 10.8208 14.4416 10.1312 13.3902 10.1312ZM25.983 18.5281V23.827H22.9111V18.883C22.9111 17.641 22.4667 16.7935 21.3548 16.7935C20.506 16.7935 20.0008 17.3647 19.7786 17.9172C19.6976 18.1148 19.6767 18.3897 19.6767 18.6662V23.827H16.6037C16.6037 23.827 16.6451 15.4535 16.6037 14.586H19.6764V15.8958C19.6734 15.9005 19.6701 15.9053 19.6667 15.91L19.6667 15.91C19.663 15.9154 19.6593 15.9207 19.6562 15.9257H19.6764V15.8958C20.0846 15.2671 20.8137 14.3689 22.4456 14.3689C24.4674 14.3688 25.983 15.6896 25.983 18.5281ZM14.9085 23.8276H11.8366V14.5866H14.9085V23.8276Z" fill="#1F2532"/>
</svg>
