<svg width="35" height="40" viewBox="0 0 35 40" fill="none" xmlns="http://www.w3.org/2000/svg">
<path d="M2.53655 0H23.7275L34.9596 11.1885V37.4114C34.9596 38.7893 33.8424 39.9054 32.4656 39.9054H2.53655C1.15977 39.9054 0.0424805 38.7893 0.0424805 37.4114V2.49406C0.0424805 1.11613 1.1599 0 2.53655 0Z" fill="#E2574C"/>
<path d="M34.9237 11.2234H26.2305C24.8537 11.2234 23.7365 10.1061 23.7365 8.72929V0.0249023L34.9237 11.2234Z" fill="#B53629"/>
<path fill-rule="evenodd" clip-rule="evenodd" d="M11.2684 17.4735H9.54379C9.05617 17.4735 8.7843 17.7952 8.7843 18.2841V24.1315C8.7843 24.6528 9.09604 24.9421 9.51501 24.9421C9.93398 24.9421 10.2457 24.6528 10.2457 24.1315V22.4243H11.3269C12.6612 22.4243 13.7624 21.479 13.7624 19.9588C13.7625 18.4712 12.7 17.4735 11.2684 17.4735ZM17.5622 17.4735H15.8213C15.3487 17.4735 15.0132 17.7978 15.0132 18.2791V24.1365C15.0132 24.7338 15.4958 24.9209 15.8412 24.9209H17.6682C19.8305 24.9209 21.2584 23.4981 21.2584 21.3019C21.2572 18.98 19.9129 17.4735 17.5622 17.4735ZM25.6044 18.9089C26.0222 18.9089 26.2268 18.5448 26.2268 18.1919C26.2268 17.8264 26.0135 17.4735 25.6044 17.4735H23.2251C22.7599 17.4735 22.5006 17.8588 22.5006 18.2841V24.1315C22.5006 24.6528 22.7973 24.9421 23.1989 24.9421C23.598 24.9421 23.896 24.6528 23.896 24.1315V22.5266H25.3351C25.7816 22.5266 26.0048 22.1612 26.0048 21.7983C26.0048 21.443 25.7816 21.0899 25.3351 21.0899H23.896V18.9089H25.6044ZM16.5846 23.4769H17.6459C19 23.4769 19.6186 22.4843 19.6186 21.2297C19.6186 19.8892 18.9889 18.9177 17.5411 18.9177H16.5846V23.4769ZM10.2459 21.0526H11.2398C11.8533 21.0526 12.2424 20.5738 12.2437 19.9502C12.2437 19.3254 11.8533 18.8466 11.2398 18.8466H10.2459V21.0526Z" fill="white"/>
</svg>
