<svg width="20" height="20" viewBox="0 0 20 20" fill="none" xmlns="http://www.w3.org/2000/svg">
<g opacity="0.375628">
<path fill-rule="evenodd" clip-rule="evenodd" d="M14.4691 13.7078L18.8443 18.082C19.0519 18.2896 19.0519 18.6328 18.8443 18.8404C18.7405 18.9481 18.6008 19 18.4651 19C18.3293 19 18.1896 18.9441 18.0858 18.8404L13.7106 14.4661C12.3613 15.6395 10.6008 16.3499 8.67665 16.3499C4.44511 16.3499 1 12.9055 1 8.67494C1 4.44435 4.44112 1 8.67665 1C12.9082 1 16.3533 4.44035 16.3533 8.67494C16.3533 10.5987 15.6427 12.3588 14.4691 13.7078ZM8.67266 2.07761C5.03593 2.07761 2.07385 5.03503 2.07385 8.67494C2.07385 12.3149 5.03593 15.2763 8.67266 15.2763C12.3134 15.2763 15.2715 12.3109 15.2715 8.67494C15.2715 5.03902 12.3134 2.07761 8.67266 2.07761Z" fill="#241F3A"/>
<path d="M18.8443 18.082L19.0211 17.9052L18.8443 18.082ZM14.4691 13.7078L14.2805 13.5437L14.1274 13.7196L14.2923 13.8846L14.4691 13.7078ZM18.8443 18.8404L18.6675 18.6635L18.6642 18.6669L18.8443 18.8404ZM18.0858 18.8404L18.2626 18.6636L18.0858 18.8404ZM13.7106 14.4661L13.8873 14.2893L13.7225 14.1244L13.5465 14.2774L13.7106 14.4661ZM19.0211 17.9052L14.6458 13.531L14.2923 13.8846L18.6676 18.2588L19.0211 17.9052ZM19.0211 19.0172C19.3263 18.712 19.3263 18.2104 19.0211 17.9052L18.6676 18.2588C18.7775 18.3687 18.7775 18.5537 18.6676 18.6636L19.0211 19.0172ZM18.4651 19.25C18.6632 19.25 18.8697 19.1743 19.0244 19.0138L18.6642 18.6669C18.6113 18.7219 18.5384 18.75 18.4651 18.75V19.25ZM17.9091 19.0172C18.0595 19.1675 18.2627 19.25 18.4651 19.25V18.75C18.396 18.75 18.3197 18.7207 18.2626 18.6636L17.9091 19.0172ZM13.5338 14.6429L17.9091 19.0172L18.2626 18.6636L13.8873 14.2893L13.5338 14.6429ZM8.67665 16.5999C10.6635 16.5999 12.4817 15.8661 13.8746 14.6547L13.5465 14.2774C12.2409 15.4129 10.5381 16.0999 8.67665 16.0999V16.5999ZM0.75 8.67494C0.75 13.0437 4.30709 16.5999 8.67665 16.5999V16.0999C4.58313 16.0999 1.25 12.7674 1.25 8.67494H0.75ZM8.67665 0.75C4.30301 0.75 0.75 4.30631 0.75 8.67494H1.25C1.25 4.58238 4.57922 1.25 8.67665 1.25V0.75ZM16.6033 8.67494C16.6033 4.30215 13.0461 0.75 8.67665 0.75V1.25C12.7702 1.25 16.1033 4.57856 16.1033 8.67494H16.6033ZM14.6577 13.8719C15.8693 12.4792 16.6033 10.6614 16.6033 8.67494H16.1033C16.1033 10.5359 15.4161 12.2383 14.2805 13.5437L14.6577 13.8719ZM2.32385 8.67494C2.32385 5.17325 5.17385 2.32761 8.67266 2.32761V1.82761C4.89801 1.82761 1.82385 4.89681 1.82385 8.67494H2.32385ZM8.67266 15.0263C5.17405 15.0263 2.32385 12.1768 2.32385 8.67494H1.82385C1.82385 12.4529 4.89781 15.5263 8.67266 15.5263V15.0263ZM15.0215 8.67494C15.0215 12.173 12.1751 15.0263 8.67266 15.0263V15.5263C12.4517 15.5263 15.5215 12.4487 15.5215 8.67494H15.0215ZM8.67266 2.32761C12.1753 2.32761 15.0215 5.17705 15.0215 8.67494H15.5215C15.5215 4.901 12.4515 1.82761 8.67266 1.82761V2.32761Z" fill="#241F3A"/>
</g>
</svg>
