<svg width="36" height="35" viewBox="0 0 36 35" fill="none" xmlns="http://www.w3.org/2000/svg">
<path opacity="0.5" fill-rule="evenodd" clip-rule="evenodd" d="M17.504 35.0002C27.169 35.0002 35.0041 27.1651 35.0041 17.5001C35.0041 7.83505 27.169 0 17.504 0C7.83896 0 0.00390625 7.83505 0.00390625 17.5001C0.00390625 27.1651 7.83896 35.0002 17.504 35.0002Z" fill="white"/>
<path d="M25.992 13.0344C25.3652 13.3094 24.6972 13.4916 24.0009 13.5801C24.7172 13.1524 25.264 12.4802 25.5211 11.6701C24.8532 12.0683 24.1157 12.3496 23.3298 12.5066C22.6956 11.8313 21.7916 11.413 20.8055 11.413C18.8924 11.413 17.3521 12.9659 17.3521 14.8696C17.3521 15.1435 17.3753 15.4069 17.4322 15.6576C14.5592 15.5175 12.0171 14.1406 10.3094 12.043C10.0112 12.5603 9.83633 13.1524 9.83633 13.7898C9.83633 14.9866 10.4526 16.0474 11.3713 16.6616C10.8161 16.6511 10.2714 16.4899 9.80999 16.236C9.80999 16.2466 9.80999 16.2603 9.80999 16.2739C9.80999 17.9533 11.0078 19.3481 12.5786 19.6694C12.2973 19.7463 11.9908 19.7832 11.6726 19.7832C11.4514 19.7832 11.228 19.7706 11.0184 19.7242C11.4661 21.0927 12.7367 22.0988 14.2474 22.1315C13.0717 23.0512 11.5788 23.6054 9.96275 23.6054C9.67936 23.6054 9.40755 23.5927 9.13574 23.558C10.6665 24.5451 12.4807 25.1087 14.437 25.1087C20.7961 25.1087 24.2727 19.8412 24.2727 15.2752C24.2727 15.1225 24.2674 14.975 24.26 14.8285C24.9459 14.3418 25.5221 13.7339 25.992 13.0344Z" fill="#1F2532"/>
</svg>
